<mxfile host="app.diagrams.net" modified="2023-07-02T17:38:59.451Z" agent="Mozilla/5.0 (X11; Ubuntu; Linux x86_64; rv:109.0) Gecko/20100101 Firefox/114.0" etag="YprlP3i8aG7pFH5eJCH7" version="21.5.2" type="github">
  <diagram name="Page-1" id="t4P9DuWMOAytNN0drY1X">
    <mxGraphModel dx="662" dy="1063" grid="0" gridSize="10" guides="1" tooltips="1" connect="1" arrows="1" fold="1" page="0" pageScale="1" pageWidth="850" pageHeight="1100" math="0" shadow="0">
      <root>
        <mxCell id="0" />
        <mxCell id="1" parent="0" />
        <mxCell id="AWPW2YwmRs-Y318Om_NQ-3" value="" style="edgeStyle=orthogonalEdgeStyle;rounded=0;orthogonalLoop=1;jettySize=auto;html=1;curved=1;entryX=0;entryY=0.5;entryDx=0;entryDy=0;" edge="1" parent="1" source="AWPW2YwmRs-Y318Om_NQ-1" target="AWPW2YwmRs-Y318Om_NQ-2">
          <mxGeometry relative="1" as="geometry" />
        </mxCell>
        <mxCell id="AWPW2YwmRs-Y318Om_NQ-17" style="edgeStyle=orthogonalEdgeStyle;curved=1;rounded=0;orthogonalLoop=1;jettySize=auto;html=1;entryX=0.5;entryY=1;entryDx=0;entryDy=0;" edge="1" parent="1" source="AWPW2YwmRs-Y318Om_NQ-1" target="AWPW2YwmRs-Y318Om_NQ-16">
          <mxGeometry relative="1" as="geometry" />
        </mxCell>
        <mxCell id="AWPW2YwmRs-Y318Om_NQ-1" value="&lt;b style=&quot;font-size: 26px;&quot;&gt;GIT HUB&lt;br style=&quot;font-size: 26px;&quot;&gt;&lt;/b&gt;" style="ellipse;whiteSpace=wrap;html=1;fillColor=#6a00ff;fontColor=#ffffff;strokeColor=default;fontSize=26;" vertex="1" parent="1">
          <mxGeometry x="279" y="169" width="261" height="156" as="geometry" />
        </mxCell>
        <mxCell id="AWPW2YwmRs-Y318Om_NQ-6" value="" style="rounded=0;orthogonalLoop=1;jettySize=auto;html=1;entryX=0.16;entryY=0.55;entryDx=0;entryDy=0;entryPerimeter=0;edgeStyle=orthogonalEdgeStyle;curved=1;" edge="1" parent="1" source="AWPW2YwmRs-Y318Om_NQ-2" target="AWPW2YwmRs-Y318Om_NQ-5">
          <mxGeometry relative="1" as="geometry" />
        </mxCell>
        <mxCell id="AWPW2YwmRs-Y318Om_NQ-8" value="" style="edgeStyle=orthogonalEdgeStyle;rounded=0;orthogonalLoop=1;jettySize=auto;html=1;curved=1;entryX=0.115;entryY=0.585;entryDx=0;entryDy=0;entryPerimeter=0;" edge="1" parent="1" source="AWPW2YwmRs-Y318Om_NQ-2" target="AWPW2YwmRs-Y318Om_NQ-7">
          <mxGeometry relative="1" as="geometry" />
        </mxCell>
        <mxCell id="AWPW2YwmRs-Y318Om_NQ-13" style="edgeStyle=orthogonalEdgeStyle;curved=1;rounded=0;orthogonalLoop=1;jettySize=auto;html=1;entryX=0.16;entryY=0.55;entryDx=0;entryDy=0;entryPerimeter=0;" edge="1" parent="1" source="AWPW2YwmRs-Y318Om_NQ-2" target="AWPW2YwmRs-Y318Om_NQ-10">
          <mxGeometry relative="1" as="geometry">
            <Array as="points">
              <mxPoint x="711" y="153" />
              <mxPoint x="876" y="153" />
            </Array>
          </mxGeometry>
        </mxCell>
        <mxCell id="AWPW2YwmRs-Y318Om_NQ-2" value="Generate SSH keygen" style="ellipse;whiteSpace=wrap;html=1;fillColor=#6a00ff;fontColor=#ffffff;strokeColor=default;" vertex="1" parent="1">
          <mxGeometry x="651" y="38" width="120" height="80" as="geometry" />
        </mxCell>
        <mxCell id="AWPW2YwmRs-Y318Om_NQ-5" value="&lt;div&gt;ssh-keygen -t ed25519 -C &quot;your@email.com&lt;/div&gt;** use your email address to github login" style="ellipse;shape=cloud;whiteSpace=wrap;html=1;fillColor=#a20025;fontColor=#ffffff;verticalAlign=middle;strokeColor=#6F0000;" vertex="1" parent="1">
          <mxGeometry x="859" y="-98" width="395" height="139" as="geometry" />
        </mxCell>
        <mxCell id="AWPW2YwmRs-Y318Om_NQ-7" value="&lt;div&gt;Enter a file in which to save the key (/home/YOU/.ssh/ALGORITHM):[Press enter]&lt;/div&gt;&lt;div&gt;and enter your phasprase password&lt;br&gt;&lt;/div&gt;" style="ellipse;shape=cloud;html=1;fillColor=#6a00ff;whiteSpace=wrap;" vertex="1" parent="1">
          <mxGeometry x="828" y="38" width="636" height="108" as="geometry" />
        </mxCell>
        <mxCell id="AWPW2YwmRs-Y318Om_NQ-10" value="copy the public key to ssh and gpg keys " style="ellipse;shape=cloud;whiteSpace=wrap;html=1;fillColor=#6a00ff;fontColor=#ffffff;" vertex="1" parent="1">
          <mxGeometry x="842" y="152" width="589" height="98" as="geometry" />
        </mxCell>
        <mxCell id="AWPW2YwmRs-Y318Om_NQ-16" value="Generate SSH keygen" style="ellipse;whiteSpace=wrap;html=1;fillColor=#6a00ff;fontColor=#ffffff;strokeColor=default;" vertex="1" parent="1">
          <mxGeometry x="403" y="-34" width="120" height="80" as="geometry" />
        </mxCell>
      </root>
    </mxGraphModel>
  </diagram>
</mxfile>
